<svg xmlns="http://www.w3.org/2000/svg" viewBox="0 0 158 161" width="158" height="161" role="img"><rect width="158" height="161" fill="#ffffff"/><rect x="10.0" y="15.0" width="138.0" height="140.0" fill="#eceef0" stroke="#7d858c" stroke-width="1.2"/><rect x="14.0" y="16.5" width="130.0" height="135.5" fill="#c9ced3" stroke="none" stroke-width="0"/><rect x="14.0" y="16.5" width="42.3" height="135.5" fill="#eceef0" stroke="#7d858c" stroke-width="1"/><rect x="18.0" y="21.5" width="34.3" height="125.5" fill="#f6f7f8" stroke="#7d858c" stroke-width="0.8"/><line x1="19.0" y1="25.1" x2="51.3" y2="25.1" stroke="#a3aab0" stroke-width="0.9" stroke-linecap="round"/><line x1="19.0" y1="26.6" x2="51.3" y2="26.6" stroke="#dde1e4" stroke-width="0.8" stroke-linecap="round"/><line x1="19.0" y1="30.3" x2="51.3" y2="30.3" stroke="#a3aab0" stroke-width="0.9" stroke-linecap="round"/><line x1="19.0" y1="31.8" x2="51.3" y2="31.8" stroke="#dde1e4" stroke-width="0.8" stroke-linecap="round"/><line x1="19.0" y1="35.5" x2="51.3" y2="35.5" stroke="#a3aab0" stroke-width="0.9" stroke-linecap="round"/><line x1="19.0" y1="37.0" x2="51.3" y2="37.0" stroke="#dde1e4" stroke-width="0.8" stroke-linecap="round"/><line x1="19.0" y1="40.7" x2="51.3" y2="40.7" stroke="#a3aab0" stroke-width="0.9" stroke-linecap="round"/><line x1="19.0" y1="42.2" x2="51.3" y2="42.2" stroke="#dde1e4" stroke-width="0.8" stroke-linecap="round"/><line x1="19.0" y1="45.9" x2="51.3" y2="45.9" stroke="#a3aab0" stroke-width="0.9" stroke-linecap="round"/><line x1="19.0" y1="47.4" x2="51.3" y2="47.4" stroke="#dde1e4" stroke-width="0.8" stroke-linecap="round"/><line x1="19.0" y1="51.1" x2="51.3" y2="51.1" stroke="#a3aab0" stroke-width="0.9" stroke-linecap="round"/><line x1="19.0" y1="52.6" x2="51.3" y2="52.6" stroke="#dde1e4" stroke-width="0.8" stroke-linecap="round"/><line x1="19.0" y1="56.3" x2="51.3" y2="56.3" stroke="#a3aab0" stroke-width="0.9" stroke-linecap="round"/><line x1="19.0" y1="57.8" x2="51.3" y2="57.8" stroke="#dde1e4" stroke-width="0.8" stroke-linecap="round"/><line x1="19.0" y1="61.5" x2="51.3" y2="61.5" stroke="#a3aab0" stroke-width="0.9" stroke-linecap="round"/><line x1="19.0" y1="63.0" x2="51.3" y2="63.0" stroke="#dde1e4" stroke-width="0.8" stroke-linecap="round"/><line x1="19.0" y1="66.7" x2="51.3" y2="66.7" stroke="#a3aab0" stroke-width="0.9" stroke-linecap="round"/><line x1="19.0" y1="68.2" x2="51.3" y2="68.2" stroke="#dde1e4" stroke-width="0.8" stroke-linecap="round"/><line x1="19.0" y1="71.9" x2="51.3" y2="71.9" stroke="#a3aab0" stroke-width="0.9" stroke-linecap="round"/><line x1="19.0" y1="73.4" x2="51.3" y2="73.4" stroke="#dde1e4" stroke-width="0.8" stroke-linecap="round"/><line x1="19.0" y1="77.1" x2="51.3" y2="77.1" stroke="#a3aab0" stroke-width="0.9" stroke-linecap="round"/><line x1="19.0" y1="78.6" x2="51.3" y2="78.6" stroke="#dde1e4" stroke-width="0.8" stroke-linecap="round"/><line x1="19.0" y1="82.3" x2="51.3" y2="82.3" stroke="#a3aab0" stroke-width="0.9" stroke-linecap="round"/><line x1="19.0" y1="83.8" x2="51.3" y2="83.8" stroke="#dde1e4" stroke-width="0.8" stroke-linecap="round"/><line x1="19.0" y1="87.5" x2="51.3" y2="87.5" stroke="#a3aab0" stroke-width="0.9" stroke-linecap="round"/><line x1="19.0" y1="89.0" x2="51.3" y2="89.0" stroke="#dde1e4" stroke-width="0.8" stroke-linecap="round"/><line x1="19.0" y1="92.7" x2="51.3" y2="92.7" stroke="#a3aab0" stroke-width="0.9" stroke-linecap="round"/><line x1="19.0" y1="94.2" x2="51.3" y2="94.2" stroke="#dde1e4" stroke-width="0.8" stroke-linecap="round"/><line x1="19.0" y1="97.9" x2="51.3" y2="97.9" stroke="#a3aab0" stroke-width="0.9" stroke-linecap="round"/><line x1="19.0" y1="99.4" x2="51.3" y2="99.4" stroke="#dde1e4" stroke-width="0.8" stroke-linecap="round"/><line x1="19.0" y1="103.1" x2="51.3" y2="103.1" stroke="#a3aab0" stroke-width="0.9" stroke-linecap="round"/><line x1="19.0" y1="104.6" x2="51.3" y2="104.6" stroke="#dde1e4" stroke-width="0.8" stroke-linecap="round"/><line x1="19.0" y1="108.3" x2="51.3" y2="108.3" stroke="#a3aab0" stroke-width="0.9" stroke-linecap="round"/><line x1="19.0" y1="109.8" x2="51.3" y2="109.8" stroke="#dde1e4" stroke-width="0.8" stroke-linecap="round"/><line x1="19.0" y1="113.5" x2="51.3" y2="113.5" stroke="#a3aab0" stroke-width="0.9" stroke-linecap="round"/><line x1="19.0" y1="115.0" x2="51.3" y2="115.0" stroke="#dde1e4" stroke-width="0.8" stroke-linecap="round"/><line x1="19.0" y1="118.7" x2="51.3" y2="118.7" stroke="#a3aab0" stroke-width="0.9" stroke-linecap="round"/><line x1="19.0" y1="120.2" x2="51.3" y2="120.2" stroke="#dde1e4" stroke-width="0.8" stroke-linecap="round"/><line x1="19.0" y1="123.9" x2="51.3" y2="123.9" stroke="#a3aab0" stroke-width="0.9" stroke-linecap="round"/><line x1="19.0" y1="125.4" x2="51.3" y2="125.4" stroke="#dde1e4" stroke-width="0.8" stroke-linecap="round"/><line x1="19.0" y1="129.1" x2="51.3" y2="129.1" stroke="#a3aab0" stroke-width="0.9" stroke-linecap="round"/><line x1="19.0" y1="130.6" x2="51.3" y2="130.6" stroke="#dde1e4" stroke-width="0.8" stroke-linecap="round"/><line x1="19.0" y1="134.3" x2="51.3" y2="134.3" stroke="#a3aab0" stroke-width="0.9" stroke-linecap="round"/><line x1="19.0" y1="135.8" x2="51.3" y2="135.8" stroke="#dde1e4" stroke-width="0.8" stroke-linecap="round"/><line x1="19.0" y1="139.5" x2="51.3" y2="139.5" stroke="#a3aab0" stroke-width="0.9" stroke-linecap="round"/><line x1="19.0" y1="141.0" x2="51.3" y2="141.0" stroke="#dde1e4" stroke-width="0.8" stroke-linecap="round"/><line x1="19.0" y1="144.7" x2="51.3" y2="144.7" stroke="#a3aab0" stroke-width="0.9" stroke-linecap="round"/><line x1="19.0" y1="146.2" x2="51.3" y2="146.2" stroke="#dde1e4" stroke-width="0.8" stroke-linecap="round"/><line x1="19.0" y1="22.5" x2="51.3" y2="84.3" stroke="#e4322b" stroke-width="1.8" stroke-linecap="round"/><line x1="19.0" y1="146.0" x2="51.3" y2="84.3" stroke="#e4322b" stroke-width="1.8" stroke-linecap="round"/><rect x="14.9" y="84.0" width="2.2" height="6.0" fill="#ffffff" stroke="#7d858c" stroke-width="0.7"/><rect x="57.8" y="16.5" width="42.3" height="135.5" fill="#eceef0" stroke="#7d858c" stroke-width="1"/><rect x="61.8" y="21.5" width="34.3" height="125.5" fill="#f6f7f8" stroke="#7d858c" stroke-width="0.8"/><line x1="62.8" y1="25.1" x2="95.2" y2="25.1" stroke="#a3aab0" stroke-width="0.9" stroke-linecap="round"/><line x1="62.8" y1="26.6" x2="95.2" y2="26.6" stroke="#dde1e4" stroke-width="0.8" stroke-linecap="round"/><line x1="62.8" y1="30.3" x2="95.2" y2="30.3" stroke="#a3aab0" stroke-width="0.9" stroke-linecap="round"/><line x1="62.8" y1="31.8" x2="95.2" y2="31.8" stroke="#dde1e4" stroke-width="0.8" stroke-linecap="round"/><line x1="62.8" y1="35.5" x2="95.2" y2="35.5" stroke="#a3aab0" stroke-width="0.9" stroke-linecap="round"/><line x1="62.8" y1="37.0" x2="95.2" y2="37.0" stroke="#dde1e4" stroke-width="0.8" stroke-linecap="round"/><line x1="62.8" y1="40.7" x2="95.2" y2="40.7" stroke="#a3aab0" stroke-width="0.9" stroke-linecap="round"/><line x1="62.8" y1="42.2" x2="95.2" y2="42.2" stroke="#dde1e4" stroke-width="0.8" stroke-linecap="round"/><line x1="62.8" y1="45.9" x2="95.2" y2="45.9" stroke="#a3aab0" stroke-width="0.9" stroke-linecap="round"/><line x1="62.8" y1="47.4" x2="95.2" y2="47.4" stroke="#dde1e4" stroke-width="0.8" stroke-linecap="round"/><line x1="62.8" y1="51.1" x2="95.2" y2="51.1" stroke="#a3aab0" stroke-width="0.9" stroke-linecap="round"/><line x1="62.8" y1="52.6" x2="95.2" y2="52.6" stroke="#dde1e4" stroke-width="0.8" stroke-linecap="round"/><line x1="62.8" y1="56.3" x2="95.2" y2="56.3" stroke="#a3aab0" stroke-width="0.9" stroke-linecap="round"/><line x1="62.8" y1="57.8" x2="95.2" y2="57.8" stroke="#dde1e4" stroke-width="0.8" stroke-linecap="round"/><line x1="62.8" y1="61.5" x2="95.2" y2="61.5" stroke="#a3aab0" stroke-width="0.9" stroke-linecap="round"/><line x1="62.8" y1="63.0" x2="95.2" y2="63.0" stroke="#dde1e4" stroke-width="0.8" stroke-linecap="round"/><line x1="62.8" y1="66.7" x2="95.2" y2="66.7" stroke="#a3aab0" stroke-width="0.9" stroke-linecap="round"/><line x1="62.8" y1="68.2" x2="95.2" y2="68.2" stroke="#dde1e4" stroke-width="0.8" stroke-linecap="round"/><line x1="62.8" y1="71.9" x2="95.2" y2="71.9" stroke="#a3aab0" stroke-width="0.9" stroke-linecap="round"/><line x1="62.8" y1="73.4" x2="95.2" y2="73.4" stroke="#dde1e4" stroke-width="0.8" stroke-linecap="round"/><line x1="62.8" y1="77.1" x2="95.2" y2="77.1" stroke="#a3aab0" stroke-width="0.9" stroke-linecap="round"/><line x1="62.8" y1="78.6" x2="95.2" y2="78.6" stroke="#dde1e4" stroke-width="0.8" stroke-linecap="round"/><line x1="62.8" y1="82.3" x2="95.2" y2="82.3" stroke="#a3aab0" stroke-width="0.9" stroke-linecap="round"/><line x1="62.8" y1="83.8" x2="95.2" y2="83.8" stroke="#dde1e4" stroke-width="0.8" stroke-linecap="round"/><line x1="62.8" y1="87.5" x2="95.2" y2="87.5" stroke="#a3aab0" stroke-width="0.9" stroke-linecap="round"/><line x1="62.8" y1="89.0" x2="95.2" y2="89.0" stroke="#dde1e4" stroke-width="0.8" stroke-linecap="round"/><line x1="62.8" y1="92.7" x2="95.2" y2="92.7" stroke="#a3aab0" stroke-width="0.9" stroke-linecap="round"/><line x1="62.8" y1="94.2" x2="95.2" y2="94.2" stroke="#dde1e4" stroke-width="0.8" stroke-linecap="round"/><line x1="62.8" y1="97.9" x2="95.2" y2="97.9" stroke="#a3aab0" stroke-width="0.9" stroke-linecap="round"/><line x1="62.8" y1="99.4" x2="95.2" y2="99.4" stroke="#dde1e4" stroke-width="0.8" stroke-linecap="round"/><line x1="62.8" y1="103.1" x2="95.2" y2="103.1" stroke="#a3aab0" stroke-width="0.9" stroke-linecap="round"/><line x1="62.8" y1="104.6" x2="95.2" y2="104.6" stroke="#dde1e4" stroke-width="0.8" stroke-linecap="round"/><line x1="62.8" y1="108.3" x2="95.2" y2="108.3" stroke="#a3aab0" stroke-width="0.9" stroke-linecap="round"/><line x1="62.8" y1="109.8" x2="95.2" y2="109.8" stroke="#dde1e4" stroke-width="0.8" stroke-linecap="round"/><line x1="62.8" y1="113.5" x2="95.2" y2="113.5" stroke="#a3aab0" stroke-width="0.9" stroke-linecap="round"/><line x1="62.8" y1="115.0" x2="95.2" y2="115.0" stroke="#dde1e4" stroke-width="0.8" stroke-linecap="round"/><line x1="62.8" y1="118.7" x2="95.2" y2="118.7" stroke="#a3aab0" stroke-width="0.9" stroke-linecap="round"/><line x1="62.8" y1="120.2" x2="95.2" y2="120.2" stroke="#dde1e4" stroke-width="0.8" stroke-linecap="round"/><line x1="62.8" y1="123.9" x2="95.2" y2="123.9" stroke="#a3aab0" stroke-width="0.9" stroke-linecap="round"/><line x1="62.8" y1="125.4" x2="95.2" y2="125.4" stroke="#dde1e4" stroke-width="0.8" stroke-linecap="round"/><line x1="62.8" y1="129.1" x2="95.2" y2="129.1" stroke="#a3aab0" stroke-width="0.9" stroke-linecap="round"/><line x1="62.8" y1="130.6" x2="95.2" y2="130.6" stroke="#dde1e4" stroke-width="0.8" stroke-linecap="round"/><line x1="62.8" y1="134.3" x2="95.2" y2="134.3" stroke="#a3aab0" stroke-width="0.9" stroke-linecap="round"/><line x1="62.8" y1="135.8" x2="95.2" y2="135.8" stroke="#dde1e4" stroke-width="0.8" stroke-linecap="round"/><line x1="62.8" y1="139.5" x2="95.2" y2="139.5" stroke="#a3aab0" stroke-width="0.9" stroke-linecap="round"/><line x1="62.8" y1="141.0" x2="95.2" y2="141.0" stroke="#dde1e4" stroke-width="0.8" stroke-linecap="round"/><line x1="62.8" y1="144.7" x2="95.2" y2="144.7" stroke="#a3aab0" stroke-width="0.9" stroke-linecap="round"/><line x1="62.8" y1="146.2" x2="95.2" y2="146.2" stroke="#dde1e4" stroke-width="0.8" stroke-linecap="round"/><line x1="62.8" y1="22.5" x2="95.2" y2="84.3" stroke="#e4322b" stroke-width="1.8" stroke-linecap="round"/><line x1="62.8" y1="146.0" x2="95.2" y2="84.3" stroke="#e4322b" stroke-width="1.8" stroke-linecap="round"/><rect x="58.7" y="84.0" width="2.2" height="6.0" fill="#ffffff" stroke="#7d858c" stroke-width="0.7"/><rect x="101.7" y="16.5" width="42.3" height="135.5" fill="#eceef0" stroke="#7d858c" stroke-width="1"/><rect x="105.7" y="21.5" width="34.3" height="125.5" fill="#f6f7f8" stroke="#7d858c" stroke-width="0.8"/><line x1="106.7" y1="25.1" x2="139.0" y2="25.1" stroke="#a3aab0" stroke-width="0.9" stroke-linecap="round"/><line x1="106.7" y1="26.6" x2="139.0" y2="26.6" stroke="#dde1e4" stroke-width="0.8" stroke-linecap="round"/><line x1="106.7" y1="30.3" x2="139.0" y2="30.3" stroke="#a3aab0" stroke-width="0.9" stroke-linecap="round"/><line x1="106.7" y1="31.8" x2="139.0" y2="31.8" stroke="#dde1e4" stroke-width="0.8" stroke-linecap="round"/><line x1="106.7" y1="35.5" x2="139.0" y2="35.5" stroke="#a3aab0" stroke-width="0.9" stroke-linecap="round"/><line x1="106.7" y1="37.0" x2="139.0" y2="37.0" stroke="#dde1e4" stroke-width="0.8" stroke-linecap="round"/><line x1="106.7" y1="40.7" x2="139.0" y2="40.7" stroke="#a3aab0" stroke-width="0.9" stroke-linecap="round"/><line x1="106.7" y1="42.2" x2="139.0" y2="42.2" stroke="#dde1e4" stroke-width="0.8" stroke-linecap="round"/><line x1="106.7" y1="45.9" x2="139.0" y2="45.9" stroke="#a3aab0" stroke-width="0.9" stroke-linecap="round"/><line x1="106.7" y1="47.4" x2="139.0" y2="47.4" stroke="#dde1e4" stroke-width="0.8" stroke-linecap="round"/><line x1="106.7" y1="51.1" x2="139.0" y2="51.1" stroke="#a3aab0" stroke-width="0.9" stroke-linecap="round"/><line x1="106.7" y1="52.6" x2="139.0" y2="52.6" stroke="#dde1e4" stroke-width="0.8" stroke-linecap="round"/><line x1="106.7" y1="56.3" x2="139.0" y2="56.3" stroke="#a3aab0" stroke-width="0.9" stroke-linecap="round"/><line x1="106.7" y1="57.8" x2="139.0" y2="57.8" stroke="#dde1e4" stroke-width="0.8" stroke-linecap="round"/><line x1="106.7" y1="61.5" x2="139.0" y2="61.5" stroke="#a3aab0" stroke-width="0.9" stroke-linecap="round"/><line x1="106.7" y1="63.0" x2="139.0" y2="63.0" stroke="#dde1e4" stroke-width="0.8" stroke-linecap="round"/><line x1="106.7" y1="66.7" x2="139.0" y2="66.7" stroke="#a3aab0" stroke-width="0.9" stroke-linecap="round"/><line x1="106.7" y1="68.2" x2="139.0" y2="68.2" stroke="#dde1e4" stroke-width="0.8" stroke-linecap="round"/><line x1="106.7" y1="71.9" x2="139.0" y2="71.9" stroke="#a3aab0" stroke-width="0.9" stroke-linecap="round"/><line x1="106.7" y1="73.4" x2="139.0" y2="73.4" stroke="#dde1e4" stroke-width="0.8" stroke-linecap="round"/><line x1="106.7" y1="77.1" x2="139.0" y2="77.1" stroke="#a3aab0" stroke-width="0.9" stroke-linecap="round"/><line x1="106.7" y1="78.6" x2="139.0" y2="78.6" stroke="#dde1e4" stroke-width="0.8" stroke-linecap="round"/><line x1="106.7" y1="82.3" x2="139.0" y2="82.3" stroke="#a3aab0" stroke-width="0.9" stroke-linecap="round"/><line x1="106.7" y1="83.8" x2="139.0" y2="83.8" stroke="#dde1e4" stroke-width="0.8" stroke-linecap="round"/><line x1="106.7" y1="87.5" x2="139.0" y2="87.5" stroke="#a3aab0" stroke-width="0.9" stroke-linecap="round"/><line x1="106.7" y1="89.0" x2="139.0" y2="89.0" stroke="#dde1e4" stroke-width="0.8" stroke-linecap="round"/><line x1="106.7" y1="92.7" x2="139.0" y2="92.7" stroke="#a3aab0" stroke-width="0.9" stroke-linecap="round"/><line x1="106.7" y1="94.2" x2="139.0" y2="94.2" stroke="#dde1e4" stroke-width="0.8" stroke-linecap="round"/><line x1="106.7" y1="97.9" x2="139.0" y2="97.9" stroke="#a3aab0" stroke-width="0.9" stroke-linecap="round"/><line x1="106.7" y1="99.4" x2="139.0" y2="99.4" stroke="#dde1e4" stroke-width="0.8" stroke-linecap="round"/><line x1="106.7" y1="103.1" x2="139.0" y2="103.1" stroke="#a3aab0" stroke-width="0.9" stroke-linecap="round"/><line x1="106.7" y1="104.6" x2="139.0" y2="104.6" stroke="#dde1e4" stroke-width="0.8" stroke-linecap="round"/><line x1="106.7" y1="108.3" x2="139.0" y2="108.3" stroke="#a3aab0" stroke-width="0.9" stroke-linecap="round"/><line x1="106.7" y1="109.8" x2="139.0" y2="109.8" stroke="#dde1e4" stroke-width="0.8" stroke-linecap="round"/><line x1="106.7" y1="113.5" x2="139.0" y2="113.5" stroke="#a3aab0" stroke-width="0.9" stroke-linecap="round"/><line x1="106.7" y1="115.0" x2="139.0" y2="115.0" stroke="#dde1e4" stroke-width="0.8" stroke-linecap="round"/><line x1="106.7" y1="118.7" x2="139.0" y2="118.7" stroke="#a3aab0" stroke-width="0.9" stroke-linecap="round"/><line x1="106.7" y1="120.2" x2="139.0" y2="120.2" stroke="#dde1e4" stroke-width="0.8" stroke-linecap="round"/><line x1="106.7" y1="123.9" x2="139.0" y2="123.9" stroke="#a3aab0" stroke-width="0.9" stroke-linecap="round"/><line x1="106.7" y1="125.4" x2="139.0" y2="125.4" stroke="#dde1e4" stroke-width="0.8" stroke-linecap="round"/><line x1="106.7" y1="129.1" x2="139.0" y2="129.1" stroke="#a3aab0" stroke-width="0.9" stroke-linecap="round"/><line x1="106.7" y1="130.6" x2="139.0" y2="130.6" stroke="#dde1e4" stroke-width="0.8" stroke-linecap="round"/><line x1="106.7" y1="134.3" x2="139.0" y2="134.3" stroke="#a3aab0" stroke-width="0.9" stroke-linecap="round"/><line x1="106.7" y1="135.8" x2="139.0" y2="135.8" stroke="#dde1e4" stroke-width="0.8" stroke-linecap="round"/><line x1="106.7" y1="139.5" x2="139.0" y2="139.5" stroke="#a3aab0" stroke-width="0.9" stroke-linecap="round"/><line x1="106.7" y1="141.0" x2="139.0" y2="141.0" stroke="#dde1e4" stroke-width="0.8" stroke-linecap="round"/><line x1="106.7" y1="144.7" x2="139.0" y2="144.7" stroke="#a3aab0" stroke-width="0.9" stroke-linecap="round"/><line x1="106.7" y1="146.2" x2="139.0" y2="146.2" stroke="#dde1e4" stroke-width="0.8" stroke-linecap="round"/><line x1="139.0" y1="22.5" x2="106.7" y2="84.3" stroke="#e4322b" stroke-width="1.8" stroke-linecap="round"/><line x1="139.0" y1="146.0" x2="106.7" y2="84.3" stroke="#e4322b" stroke-width="1.8" stroke-linecap="round"/><rect x="140.9" y="84.0" width="2.2" height="6.0" fill="#ffffff" stroke="#7d858c" stroke-width="0.7"/><polygon points="6.0,15.0 6.0,10.0 57.1,6.0 100.9,10.0 152.0,10.0 152.0,15.0" fill="#eceef0" stroke="#7d858c" stroke-width="1.1" stroke-linejoin="round"/></svg>