<svg xmlns="http://www.w3.org/2000/svg" viewBox="0 0 144 208" width="144" height="208" role="img"><rect width="144" height="208" fill="#ffffff"/><rect x="5.0" y="5.0" width="134.0" height="198.0" fill="#d0d2d4" stroke="#9aa0a6" stroke-width="1.4"/><rect x="12.0" y="12.0" width="120.0" height="44.2" fill="#eaf7fb" stroke="#b9c2c9" stroke-width="1"/><rect x="12.0" y="56.2" width="120.0" height="5.0" fill="#d0d2d4" stroke="#9aa0a6" stroke-width="1"/><rect x="12.0" y="61.2" width="60.0" height="134.8" fill="#eceef0" stroke="#9aa0a6" stroke-width="1"/><rect x="17.0" y="66.2" width="50.0" height="124.8" fill="#f6f7f8" stroke="#b9c2c9" stroke-width="0.8"/><line x1="19.5" y1="71.4" x2="64.5" y2="71.4" stroke="#8b9298" stroke-width="1"/><line x1="19.5" y1="78.4" x2="64.5" y2="78.4" stroke="#8b9298" stroke-width="1"/><line x1="19.5" y1="85.4" x2="64.5" y2="85.4" stroke="#8b9298" stroke-width="1"/><line x1="19.5" y1="92.4" x2="64.5" y2="92.4" stroke="#8b9298" stroke-width="1"/><line x1="19.5" y1="99.4" x2="64.5" y2="99.4" stroke="#8b9298" stroke-width="1"/><line x1="19.5" y1="106.4" x2="64.5" y2="106.4" stroke="#8b9298" stroke-width="1"/><line x1="19.5" y1="113.4" x2="64.5" y2="113.4" stroke="#8b9298" stroke-width="1"/><line x1="19.5" y1="120.4" x2="64.5" y2="120.4" stroke="#8b9298" stroke-width="1"/><line x1="19.5" y1="127.4" x2="64.5" y2="127.4" stroke="#8b9298" stroke-width="1"/><line x1="19.5" y1="134.4" x2="64.5" y2="134.4" stroke="#8b9298" stroke-width="1"/><line x1="19.5" y1="141.4" x2="64.5" y2="141.4" stroke="#8b9298" stroke-width="1"/><line x1="19.5" y1="148.4" x2="64.5" y2="148.4" stroke="#8b9298" stroke-width="1"/><line x1="19.5" y1="155.4" x2="64.5" y2="155.4" stroke="#8b9298" stroke-width="1"/><line x1="19.5" y1="162.4" x2="64.5" y2="162.4" stroke="#8b9298" stroke-width="1"/><line x1="19.5" y1="169.4" x2="64.5" y2="169.4" stroke="#8b9298" stroke-width="1"/><line x1="19.5" y1="176.4" x2="64.5" y2="176.4" stroke="#8b9298" stroke-width="1"/><line x1="19.5" y1="183.4" x2="64.5" y2="183.4" stroke="#8b9298" stroke-width="1"/><line x1="17.0" y1="66.2" x2="67.0" y2="128.6" stroke="#e4322b" stroke-width="1.6" stroke-linecap="round"/><line x1="17.0" y1="191.0" x2="67.0" y2="128.6" stroke="#e4322b" stroke-width="1.6" stroke-linecap="round"/><rect x="10.2" y="77.7" width="3.6" height="10.0" fill="#8b9298" stroke="#8b9298" stroke-width="0.5"/><rect x="10.2" y="169.4" width="3.6" height="10.0" fill="#8b9298" stroke="#8b9298" stroke-width="0.5"/><rect x="72.0" y="61.2" width="60.0" height="134.8" fill="#eceef0" stroke="#9aa0a6" stroke-width="1"/><rect x="77.0" y="66.2" width="50.0" height="124.8" fill="#f6f7f8" stroke="#b9c2c9" stroke-width="0.8"/><line x1="79.5" y1="71.4" x2="124.5" y2="71.4" stroke="#8b9298" stroke-width="1"/><line x1="79.5" y1="78.4" x2="124.5" y2="78.4" stroke="#8b9298" stroke-width="1"/><line x1="79.5" y1="85.4" x2="124.5" y2="85.4" stroke="#8b9298" stroke-width="1"/><line x1="79.5" y1="92.4" x2="124.5" y2="92.4" stroke="#8b9298" stroke-width="1"/><line x1="79.5" y1="99.4" x2="124.5" y2="99.4" stroke="#8b9298" stroke-width="1"/><line x1="79.5" y1="106.4" x2="124.5" y2="106.4" stroke="#8b9298" stroke-width="1"/><line x1="79.5" y1="113.4" x2="124.5" y2="113.4" stroke="#8b9298" stroke-width="1"/><line x1="79.5" y1="120.4" x2="124.5" y2="120.4" stroke="#8b9298" stroke-width="1"/><line x1="79.5" y1="127.4" x2="124.5" y2="127.4" stroke="#8b9298" stroke-width="1"/><line x1="79.5" y1="134.4" x2="124.5" y2="134.4" stroke="#8b9298" stroke-width="1"/><line x1="79.5" y1="141.4" x2="124.5" y2="141.4" stroke="#8b9298" stroke-width="1"/><line x1="79.5" y1="148.4" x2="124.5" y2="148.4" stroke="#8b9298" stroke-width="1"/><line x1="79.5" y1="155.4" x2="124.5" y2="155.4" stroke="#8b9298" stroke-width="1"/><line x1="79.5" y1="162.4" x2="124.5" y2="162.4" stroke="#8b9298" stroke-width="1"/><line x1="79.5" y1="169.4" x2="124.5" y2="169.4" stroke="#8b9298" stroke-width="1"/><line x1="79.5" y1="176.4" x2="124.5" y2="176.4" stroke="#8b9298" stroke-width="1"/><line x1="79.5" y1="183.4" x2="124.5" y2="183.4" stroke="#8b9298" stroke-width="1"/><line x1="127.0" y1="66.2" x2="77.0" y2="128.6" stroke="#e4322b" stroke-width="1.6" stroke-linecap="round"/><line x1="127.0" y1="191.0" x2="77.0" y2="128.6" stroke="#e4322b" stroke-width="1.6" stroke-linecap="round"/><rect x="130.2" y="77.7" width="3.6" height="10.0" fill="#8b9298" stroke="#8b9298" stroke-width="0.5"/><rect x="130.2" y="169.4" width="3.6" height="10.0" fill="#8b9298" stroke="#8b9298" stroke-width="0.5"/></svg>