<svg xmlns="http://www.w3.org/2000/svg" viewBox="0 0 160 242" width="160" height="242" role="img"><rect width="160" height="242" fill="#ffffff"/><rect x="5.0" y="5.0" width="150.0" height="232.0" fill="#d0d2d4" stroke="#9aa0a6" stroke-width="1.4"/><rect x="12.0" y="12.0" width="68.0" height="218.0" fill="#eceef0" stroke="#9aa0a6" stroke-width="1"/><rect x="17.0" y="17.0" width="58.0" height="208.0" fill="#f6f7f8" stroke="#b9c2c9" stroke-width="0.8"/><line x1="19.5" y1="22.3" x2="72.5" y2="22.3" stroke="#8b9298" stroke-width="1"/><line x1="19.5" y1="29.3" x2="72.5" y2="29.3" stroke="#8b9298" stroke-width="1"/><line x1="19.5" y1="36.3" x2="72.5" y2="36.3" stroke="#8b9298" stroke-width="1"/><line x1="19.5" y1="43.3" x2="72.5" y2="43.3" stroke="#8b9298" stroke-width="1"/><line x1="19.5" y1="50.3" x2="72.5" y2="50.3" stroke="#8b9298" stroke-width="1"/><line x1="19.5" y1="57.3" x2="72.5" y2="57.3" stroke="#8b9298" stroke-width="1"/><line x1="19.5" y1="64.3" x2="72.5" y2="64.3" stroke="#8b9298" stroke-width="1"/><line x1="19.5" y1="71.3" x2="72.5" y2="71.3" stroke="#8b9298" stroke-width="1"/><line x1="19.5" y1="78.3" x2="72.5" y2="78.3" stroke="#8b9298" stroke-width="1"/><line x1="19.5" y1="85.3" x2="72.5" y2="85.3" stroke="#8b9298" stroke-width="1"/><line x1="19.5" y1="92.3" x2="72.5" y2="92.3" stroke="#8b9298" stroke-width="1"/><line x1="19.5" y1="99.3" x2="72.5" y2="99.3" stroke="#8b9298" stroke-width="1"/><line x1="19.5" y1="106.3" x2="72.5" y2="106.3" stroke="#8b9298" stroke-width="1"/><line x1="19.5" y1="113.3" x2="72.5" y2="113.3" stroke="#8b9298" stroke-width="1"/><line x1="19.5" y1="120.3" x2="72.5" y2="120.3" stroke="#8b9298" stroke-width="1"/><line x1="19.5" y1="127.3" x2="72.5" y2="127.3" stroke="#8b9298" stroke-width="1"/><line x1="19.5" y1="134.3" x2="72.5" y2="134.3" stroke="#8b9298" stroke-width="1"/><line x1="19.5" y1="141.3" x2="72.5" y2="141.3" stroke="#8b9298" stroke-width="1"/><line x1="19.5" y1="148.3" x2="72.5" y2="148.3" stroke="#8b9298" stroke-width="1"/><line x1="19.5" y1="155.3" x2="72.5" y2="155.3" stroke="#8b9298" stroke-width="1"/><line x1="19.5" y1="162.3" x2="72.5" y2="162.3" stroke="#8b9298" stroke-width="1"/><line x1="19.5" y1="169.3" x2="72.5" y2="169.3" stroke="#8b9298" stroke-width="1"/><line x1="19.5" y1="176.3" x2="72.5" y2="176.3" stroke="#8b9298" stroke-width="1"/><line x1="19.5" y1="183.3" x2="72.5" y2="183.3" stroke="#8b9298" stroke-width="1"/><line x1="19.5" y1="190.3" x2="72.5" y2="190.3" stroke="#8b9298" stroke-width="1"/><line x1="19.5" y1="197.3" x2="72.5" y2="197.3" stroke="#8b9298" stroke-width="1"/><line x1="19.5" y1="204.3" x2="72.5" y2="204.3" stroke="#8b9298" stroke-width="1"/><line x1="19.5" y1="211.3" x2="72.5" y2="211.3" stroke="#8b9298" stroke-width="1"/><line x1="19.5" y1="218.3" x2="72.5" y2="218.3" stroke="#8b9298" stroke-width="1"/><line x1="17.0" y1="17.0" x2="75.0" y2="121.0" stroke="#e4322b" stroke-width="1.6" stroke-linecap="round"/><line x1="17.0" y1="225.0" x2="75.0" y2="121.0" stroke="#e4322b" stroke-width="1.6" stroke-linecap="round"/><rect x="10.2" y="41.9" width="3.6" height="10.0" fill="#8b9298" stroke="#8b9298" stroke-width="0.5"/><rect x="10.2" y="190.1" width="3.6" height="10.0" fill="#8b9298" stroke="#8b9298" stroke-width="0.5"/><rect x="80.0" y="12.0" width="68.0" height="218.0" fill="#eceef0" stroke="#9aa0a6" stroke-width="1"/><rect x="85.0" y="17.0" width="58.0" height="208.0" fill="#f6f7f8" stroke="#b9c2c9" stroke-width="0.8"/><line x1="87.5" y1="22.3" x2="140.5" y2="22.3" stroke="#8b9298" stroke-width="1"/><line x1="87.5" y1="29.3" x2="140.5" y2="29.3" stroke="#8b9298" stroke-width="1"/><line x1="87.5" y1="36.3" x2="140.5" y2="36.3" stroke="#8b9298" stroke-width="1"/><line x1="87.5" y1="43.3" x2="140.5" y2="43.3" stroke="#8b9298" stroke-width="1"/><line x1="87.5" y1="50.3" x2="140.5" y2="50.3" stroke="#8b9298" stroke-width="1"/><line x1="87.5" y1="57.3" x2="140.5" y2="57.3" stroke="#8b9298" stroke-width="1"/><line x1="87.5" y1="64.3" x2="140.5" y2="64.3" stroke="#8b9298" stroke-width="1"/><line x1="87.5" y1="71.3" x2="140.5" y2="71.3" stroke="#8b9298" stroke-width="1"/><line x1="87.5" y1="78.3" x2="140.5" y2="78.3" stroke="#8b9298" stroke-width="1"/><line x1="87.5" y1="85.3" x2="140.5" y2="85.3" stroke="#8b9298" stroke-width="1"/><line x1="87.5" y1="92.3" x2="140.5" y2="92.3" stroke="#8b9298" stroke-width="1"/><line x1="87.5" y1="99.3" x2="140.5" y2="99.3" stroke="#8b9298" stroke-width="1"/><line x1="87.5" y1="106.3" x2="140.5" y2="106.3" stroke="#8b9298" stroke-width="1"/><line x1="87.5" y1="113.3" x2="140.5" y2="113.3" stroke="#8b9298" stroke-width="1"/><line x1="87.5" y1="120.3" x2="140.5" y2="120.3" stroke="#8b9298" stroke-width="1"/><line x1="87.5" y1="127.3" x2="140.5" y2="127.3" stroke="#8b9298" stroke-width="1"/><line x1="87.5" y1="134.3" x2="140.5" y2="134.3" stroke="#8b9298" stroke-width="1"/><line x1="87.5" y1="141.3" x2="140.5" y2="141.3" stroke="#8b9298" stroke-width="1"/><line x1="87.5" y1="148.3" x2="140.5" y2="148.3" stroke="#8b9298" stroke-width="1"/><line x1="87.5" y1="155.3" x2="140.5" y2="155.3" stroke="#8b9298" stroke-width="1"/><line x1="87.5" y1="162.3" x2="140.5" y2="162.3" stroke="#8b9298" stroke-width="1"/><line x1="87.5" y1="169.3" x2="140.5" y2="169.3" stroke="#8b9298" stroke-width="1"/><line x1="87.5" y1="176.3" x2="140.5" y2="176.3" stroke="#8b9298" stroke-width="1"/><line x1="87.5" y1="183.3" x2="140.5" y2="183.3" stroke="#8b9298" stroke-width="1"/><line x1="87.5" y1="190.3" x2="140.5" y2="190.3" stroke="#8b9298" stroke-width="1"/><line x1="87.5" y1="197.3" x2="140.5" y2="197.3" stroke="#8b9298" stroke-width="1"/><line x1="87.5" y1="204.3" x2="140.5" y2="204.3" stroke="#8b9298" stroke-width="1"/><line x1="87.5" y1="211.3" x2="140.5" y2="211.3" stroke="#8b9298" stroke-width="1"/><line x1="87.5" y1="218.3" x2="140.5" y2="218.3" stroke="#8b9298" stroke-width="1"/><line x1="143.0" y1="17.0" x2="85.0" y2="121.0" stroke="#e4322b" stroke-width="1.6" stroke-linecap="round"/><line x1="143.0" y1="225.0" x2="85.0" y2="121.0" stroke="#e4322b" stroke-width="1.6" stroke-linecap="round"/><rect x="146.2" y="41.9" width="3.6" height="10.0" fill="#8b9298" stroke="#8b9298" stroke-width="0.5"/><rect x="146.2" y="190.1" width="3.6" height="10.0" fill="#8b9298" stroke="#8b9298" stroke-width="0.5"/></svg>