<svg xmlns="http://www.w3.org/2000/svg" viewBox="0 0 227 188" width="227" height="188" role="img"><rect width="227" height="188" fill="#ffffff"/><rect x="5.0" y="5.0" width="150.0" height="178.0" fill="#d0d2d4" stroke="#9aa0a6" stroke-width="1.4"/><rect x="12.0" y="12.0" width="68.0" height="164.0" fill="#eceef0" stroke="#9aa0a6" stroke-width="1"/><rect x="17.0" y="17.0" width="58.0" height="154.0" fill="#f6f7f8" stroke="#b9c2c9" stroke-width="0.8"/><line x1="19.5" y1="22.3" x2="72.5" y2="22.3" stroke="#8b9298" stroke-width="1"/><line x1="19.5" y1="29.3" x2="72.5" y2="29.3" stroke="#8b9298" stroke-width="1"/><line x1="19.5" y1="36.3" x2="72.5" y2="36.3" stroke="#8b9298" stroke-width="1"/><line x1="19.5" y1="43.3" x2="72.5" y2="43.3" stroke="#8b9298" stroke-width="1"/><line x1="19.5" y1="50.3" x2="72.5" y2="50.3" stroke="#8b9298" stroke-width="1"/><line x1="19.5" y1="57.3" x2="72.5" y2="57.3" stroke="#8b9298" stroke-width="1"/><line x1="19.5" y1="64.3" x2="72.5" y2="64.3" stroke="#8b9298" stroke-width="1"/><line x1="19.5" y1="71.3" x2="72.5" y2="71.3" stroke="#8b9298" stroke-width="1"/><line x1="19.5" y1="78.3" x2="72.5" y2="78.3" stroke="#8b9298" stroke-width="1"/><line x1="19.5" y1="85.3" x2="72.5" y2="85.3" stroke="#8b9298" stroke-width="1"/><line x1="19.5" y1="92.3" x2="72.5" y2="92.3" stroke="#8b9298" stroke-width="1"/><line x1="19.5" y1="99.3" x2="72.5" y2="99.3" stroke="#8b9298" stroke-width="1"/><line x1="19.5" y1="106.3" x2="72.5" y2="106.3" stroke="#8b9298" stroke-width="1"/><line x1="19.5" y1="113.3" x2="72.5" y2="113.3" stroke="#8b9298" stroke-width="1"/><line x1="19.5" y1="120.3" x2="72.5" y2="120.3" stroke="#8b9298" stroke-width="1"/><line x1="19.5" y1="127.3" x2="72.5" y2="127.3" stroke="#8b9298" stroke-width="1"/><line x1="19.5" y1="134.3" x2="72.5" y2="134.3" stroke="#8b9298" stroke-width="1"/><line x1="19.5" y1="141.3" x2="72.5" y2="141.3" stroke="#8b9298" stroke-width="1"/><line x1="19.5" y1="148.3" x2="72.5" y2="148.3" stroke="#8b9298" stroke-width="1"/><line x1="19.5" y1="155.3" x2="72.5" y2="155.3" stroke="#8b9298" stroke-width="1"/><line x1="19.5" y1="162.3" x2="72.5" y2="162.3" stroke="#8b9298" stroke-width="1"/><line x1="17.0" y1="17.0" x2="75.0" y2="94.0" stroke="#e4322b" stroke-width="1.6" stroke-linecap="round"/><line x1="17.0" y1="171.0" x2="75.0" y2="94.0" stroke="#e4322b" stroke-width="1.6" stroke-linecap="round"/><rect x="10.2" y="33.2" width="3.6" height="10.0" fill="#8b9298" stroke="#8b9298" stroke-width="0.5"/><rect x="10.2" y="144.8" width="3.6" height="10.0" fill="#8b9298" stroke="#8b9298" stroke-width="0.5"/><rect x="80.0" y="12.0" width="68.0" height="164.0" fill="#eceef0" stroke="#9aa0a6" stroke-width="1"/><rect x="85.0" y="17.0" width="58.0" height="154.0" fill="#f6f7f8" stroke="#b9c2c9" stroke-width="0.8"/><line x1="87.5" y1="22.3" x2="140.5" y2="22.3" stroke="#8b9298" stroke-width="1"/><line x1="87.5" y1="29.3" x2="140.5" y2="29.3" stroke="#8b9298" stroke-width="1"/><line x1="87.5" y1="36.3" x2="140.5" y2="36.3" stroke="#8b9298" stroke-width="1"/><line x1="87.5" y1="43.3" x2="140.5" y2="43.3" stroke="#8b9298" stroke-width="1"/><line x1="87.5" y1="50.3" x2="140.5" y2="50.3" stroke="#8b9298" stroke-width="1"/><line x1="87.5" y1="57.3" x2="140.5" y2="57.3" stroke="#8b9298" stroke-width="1"/><line x1="87.5" y1="64.3" x2="140.5" y2="64.3" stroke="#8b9298" stroke-width="1"/><line x1="87.5" y1="71.3" x2="140.5" y2="71.3" stroke="#8b9298" stroke-width="1"/><line x1="87.5" y1="78.3" x2="140.5" y2="78.3" stroke="#8b9298" stroke-width="1"/><line x1="87.5" y1="85.3" x2="140.5" y2="85.3" stroke="#8b9298" stroke-width="1"/><line x1="87.5" y1="92.3" x2="140.5" y2="92.3" stroke="#8b9298" stroke-width="1"/><line x1="87.5" y1="99.3" x2="140.5" y2="99.3" stroke="#8b9298" stroke-width="1"/><line x1="87.5" y1="106.3" x2="140.5" y2="106.3" stroke="#8b9298" stroke-width="1"/><line x1="87.5" y1="113.3" x2="140.5" y2="113.3" stroke="#8b9298" stroke-width="1"/><line x1="87.5" y1="120.3" x2="140.5" y2="120.3" stroke="#8b9298" stroke-width="1"/><line x1="87.5" y1="127.3" x2="140.5" y2="127.3" stroke="#8b9298" stroke-width="1"/><line x1="87.5" y1="134.3" x2="140.5" y2="134.3" stroke="#8b9298" stroke-width="1"/><line x1="87.5" y1="141.3" x2="140.5" y2="141.3" stroke="#8b9298" stroke-width="1"/><line x1="87.5" y1="148.3" x2="140.5" y2="148.3" stroke="#8b9298" stroke-width="1"/><line x1="87.5" y1="155.3" x2="140.5" y2="155.3" stroke="#8b9298" stroke-width="1"/><line x1="87.5" y1="162.3" x2="140.5" y2="162.3" stroke="#8b9298" stroke-width="1"/><line x1="143.0" y1="17.0" x2="85.0" y2="94.0" stroke="#e4322b" stroke-width="1.6" stroke-linecap="round"/><line x1="143.0" y1="171.0" x2="85.0" y2="94.0" stroke="#e4322b" stroke-width="1.6" stroke-linecap="round"/><rect x="146.2" y="33.2" width="3.6" height="10.0" fill="#8b9298" stroke="#8b9298" stroke-width="0.5"/><rect x="146.2" y="144.8" width="3.6" height="10.0" fill="#8b9298" stroke="#8b9298" stroke-width="0.5"/><rect x="155.0" y="5.0" width="7.0" height="178.0" fill="#d0d2d4" stroke="#9aa0a6" stroke-width="1.2"/><polygon points="162.0,5.0 222.0,21.0 222.0,167.0 162.0,183.0" fill="#d0d2d4" stroke="#9aa0a6" stroke-width="1.4"/><polygon points="162.0,12.0 216.4,24.8 216.4,163.2 162.0,176.0" fill="#eceef0" stroke="#9aa0a6" stroke-width="1"/><polygon points="167.0,17.0 212.9,29.0 212.9,159.0 167.0,171.0" fill="#f6f7f8" stroke="#b9c2c9" stroke-width="0.8"/><line x1="169.0" y1="24.0" x2="210.9" y2="34.9" stroke="#8b9298" stroke-width="1"/><line x1="169.0" y1="31.0" x2="210.9" y2="40.8" stroke="#8b9298" stroke-width="1"/><line x1="169.0" y1="38.0" x2="210.9" y2="46.7" stroke="#8b9298" stroke-width="1"/><line x1="169.0" y1="45.0" x2="210.9" y2="52.6" stroke="#8b9298" stroke-width="1"/><line x1="169.0" y1="52.0" x2="210.9" y2="58.6" stroke="#8b9298" stroke-width="1"/><line x1="169.0" y1="59.0" x2="210.9" y2="64.5" stroke="#8b9298" stroke-width="1"/><line x1="169.0" y1="66.0" x2="210.9" y2="70.4" stroke="#8b9298" stroke-width="1"/><line x1="169.0" y1="73.0" x2="210.9" y2="76.3" stroke="#8b9298" stroke-width="1"/><line x1="169.0" y1="80.0" x2="210.9" y2="82.2" stroke="#8b9298" stroke-width="1"/><line x1="169.0" y1="87.0" x2="210.9" y2="88.1" stroke="#8b9298" stroke-width="1"/><line x1="169.0" y1="94.0" x2="210.9" y2="94.0" stroke="#8b9298" stroke-width="1"/><line x1="169.0" y1="101.0" x2="210.9" y2="99.9" stroke="#8b9298" stroke-width="1"/><line x1="169.0" y1="108.0" x2="210.9" y2="105.8" stroke="#8b9298" stroke-width="1"/><line x1="169.0" y1="115.0" x2="210.9" y2="111.7" stroke="#8b9298" stroke-width="1"/><line x1="169.0" y1="122.0" x2="210.9" y2="117.6" stroke="#8b9298" stroke-width="1"/><line x1="169.0" y1="129.0" x2="210.9" y2="123.5" stroke="#8b9298" stroke-width="1"/><line x1="169.0" y1="136.0" x2="210.9" y2="129.4" stroke="#8b9298" stroke-width="1"/><line x1="169.0" y1="143.0" x2="210.9" y2="135.4" stroke="#8b9298" stroke-width="1"/><line x1="169.0" y1="150.0" x2="210.9" y2="141.3" stroke="#8b9298" stroke-width="1"/><line x1="169.0" y1="157.0" x2="210.9" y2="147.2" stroke="#8b9298" stroke-width="1"/><line x1="169.0" y1="164.0" x2="210.9" y2="153.1" stroke="#8b9298" stroke-width="1"/><line x1="211.4" y1="29.0" x2="167.0" y2="94.0" stroke="#e4322b" stroke-width="1.6" stroke-linecap="round"/><line x1="211.4" y1="159.0" x2="167.0" y2="94.0" stroke="#e4322b" stroke-width="1.6" stroke-linecap="round"/><rect x="214.6" y="41.9" width="3.6" height="10.0" fill="#8b9298" stroke="#8b9298" stroke-width="0.5"/><rect x="214.6" y="136.1" width="3.6" height="10.0" fill="#8b9298" stroke="#8b9298" stroke-width="0.5"/></svg>